<svg width="220" height="74" viewBox="0 0 220 74" fill="none" xmlns="http://www.w3.org/2000/svg">
<path d="M207.435 21.0996V35.9878L185.883 35.9917V21.0996H179.34V43.22H180.103C187.883 43.2162 195.662 43.2085 203.441 43.1969C204.953 43.1949 206.465 43.1904 207.977 43.1859C210.027 43.1798 212.077 43.1737 214.128 43.1739V45.7385H220.001V35.9272H214.19C214.106 35.7976 214.106 35.5651 214.106 35.1479V21.98C214.106 21.7676 214.093 21.5533 214.08 21.3504C214.075 21.2644 214.07 21.1805 214.066 21.0996H207.435Z" fill="#00578A"/>
<path d="M131.682 29.8056V43.1516H125.078V21.1069C126.813 21.1069 128.524 21.1069 130.233 21.1165C130.471 21.1531 130.701 21.2331 130.91 21.3528C136.804 23.8592 142.695 26.3726 148.581 28.8931C148.816 29.0044 149.074 29.06 149.334 29.0557C149.594 29.0514 149.85 28.9872 150.081 28.8682C155.783 26.3438 161.493 23.8368 167.21 21.347C167.562 21.1978 167.939 21.1176 168.321 21.1107C169.865 21.0857 171.408 21.1107 173.01 21.1107V43.1804H166.439V29.8787C166.08 30.0227 165.837 30.1111 165.604 30.2149C160.454 32.4946 155.306 34.7794 150.162 37.0693C149.933 37.1897 149.679 37.2552 149.421 37.2605C149.162 37.2658 148.906 37.211 148.673 37.1001C143.311 34.7666 137.94 32.4497 132.562 30.1495C132.302 30.0285 132.033 29.9401 131.682 29.8056Z" fill="#00578A"/>
<path d="M84.1484 21.0996H119.003V22.1744C119.003 23.8924 118.967 25.6104 119.019 27.3285C119.041 28.052 118.787 28.2047 118.108 28.2028C109.339 28.1824 100.569 28.1779 91.7994 28.1894H90.7476V42.9111H84.1484V21.0996Z" fill="#00578A"/>
<path d="M84.0156 54.0857V49.6426H87.247V50.2878H84.8382V54.0857H84.0156Z" fill="#151515"/>
<path d="M90.0771 54.0849C89.6792 54.0946 89.2859 53.999 88.9381 53.808C88.6162 53.6219 88.3561 53.3473 88.1897 53.0176C88.0038 52.639 87.9123 52.2221 87.9228 51.8015C87.9113 51.3778 88.0028 50.9574 88.1897 50.5758C88.3561 50.2462 88.6162 49.9715 88.9381 49.7854C89.2856 49.5936 89.6791 49.4979 90.0771 49.5086C90.4762 49.4987 90.8708 49.5942 91.2199 49.7854C91.5427 49.97 91.8025 50.2451 91.9664 50.5758C92.1502 50.9549 92.2403 51.3718 92.2294 51.792C92.2408 52.2153 92.1507 52.6352 91.9664 53.0176C91.8025 53.3484 91.5427 53.6235 91.2199 53.808C90.8704 53.9983 90.4761 54.0938 90.0771 54.0849ZM90.0771 53.451C90.2599 53.4575 90.4418 53.4232 90.6093 53.3504C90.7767 53.2777 90.9253 53.1685 91.044 53.031C91.2876 52.7484 91.4094 52.3354 91.4094 51.792C91.4094 51.2485 91.2876 50.8387 91.044 50.5625C90.924 50.427 90.775 50.3197 90.6077 50.2483C90.4405 50.177 90.2592 50.1434 90.0771 50.1501C89.8949 50.1431 89.7136 50.1766 89.5462 50.248C89.3789 50.3193 89.2299 50.4268 89.1102 50.5625C88.8704 50.8374 88.7505 51.2472 88.7505 51.792C88.7505 52.3367 88.8704 52.7497 89.1102 53.031C89.2286 53.1687 89.3772 53.278 89.5447 53.3508C89.7122 53.4236 89.8942 53.4578 90.0771 53.451Z" fill="#151515"/>
<path d="M93.5144 55.9705V50.645C93.5144 50.4732 93.5144 50.2977 93.4946 50.1201C93.4749 49.9426 93.4651 49.7651 93.4414 49.5876H94.2301L94.3287 50.618H94.2301C94.313 50.2859 94.5197 49.9961 94.8097 49.8056C95.1237 49.6021 95.4941 49.4984 95.8705 49.5085C96.2436 49.5004 96.6115 49.596 96.9312 49.7844C97.2406 49.9751 97.4855 50.251 97.6351 50.5774C97.8096 50.9675 97.8944 51.3905 97.8836 51.8162C97.8943 52.2432 97.8095 52.6673 97.6351 53.0588C97.4868 53.3876 97.2417 53.6656 96.9312 53.8576C96.6115 54.046 96.2436 54.1417 95.8705 54.1336C95.4986 54.1422 95.133 54.0384 94.8235 53.8364C94.5361 53.6443 94.3267 53.3596 94.232 53.0318H94.3306V55.9705H93.5144ZM95.6832 53.4929C95.8714 53.5005 96.059 53.4662 96.2318 53.3927C96.4045 53.3191 96.5581 53.2083 96.6808 53.0685C96.928 52.7829 97.0515 52.3655 97.0515 51.8162C97.0515 51.2669 96.928 50.8527 96.6808 50.5736C96.5568 50.4358 96.4028 50.3268 96.2302 50.2547C96.0576 50.1826 95.8707 50.1491 95.6832 50.1568C95.4975 50.1498 95.3126 50.1836 95.142 50.2557C94.9714 50.3278 94.8194 50.4365 94.6974 50.5736C94.4529 50.8514 94.3306 51.2656 94.3306 51.8162C94.3306 52.3668 94.4529 52.7842 94.6974 53.0685C94.819 53.2087 94.9717 53.3198 95.1439 53.3934C95.3162 53.467 95.5033 53.501 95.6911 53.4929H95.6832Z" fill="#151515"/>
<path d="M100.981 54.0849C100.584 54.0944 100.19 53.9988 99.8424 53.8081C99.5217 53.6211 99.2625 53.3466 99.096 53.0176C98.9101 52.6391 98.8186 52.2221 98.8291 51.8015C98.8175 51.3778 98.9091 50.9574 99.096 50.5758C99.2625 50.2468 99.5217 49.9724 99.8424 49.7854C100.19 49.5938 100.583 49.4982 100.981 49.5086C101.381 49.4984 101.775 49.594 102.124 49.7854C102.448 49.9699 102.708 50.245 102.873 50.5758C103.056 50.9551 103.146 51.3718 103.136 51.792C103.146 52.2152 103.056 52.6349 102.873 53.0176C102.708 53.3485 102.448 53.6236 102.124 53.8081C101.775 53.9986 101.381 54.0941 100.981 54.0849ZM100.981 53.451C101.164 53.4576 101.346 53.4232 101.514 53.3504C101.681 53.2777 101.83 53.1685 101.948 53.031C102.191 52.7485 102.312 52.3354 102.312 51.792C102.312 51.2485 102.191 50.8386 101.948 50.5625C101.828 50.4271 101.679 50.3199 101.512 50.2485C101.345 50.1772 101.164 50.1435 100.981 50.15C100.799 50.143 100.618 50.1764 100.451 50.2477C100.283 50.3191 100.134 50.4267 100.015 50.5625C99.7735 50.8374 99.6529 51.2472 99.6529 51.792C99.6529 52.3367 99.7735 52.7497 100.015 53.031C100.133 53.1688 100.281 53.2783 100.449 53.3511C100.616 53.4238 100.799 53.458 100.981 53.451Z" fill="#151515"/>
<path d="M104.078 55.1628V53.4112H104.566C104.777 53.0915 104.926 52.7369 105.007 52.3648C105.105 51.8939 105.15 51.4141 105.144 50.9335V49.6426H108.349V53.4112H109.06V55.1628H108.367V54.0254H104.771V55.1628H104.078ZM105.331 53.4188H107.595V50.2568H105.858V51.0776C105.859 51.5094 105.814 51.9402 105.725 52.3629C105.648 52.7338 105.512 53.0902 105.321 53.4188H105.331Z" fill="#151515"/>
<path d="M112.095 54.0848C111.683 54.0949 111.277 53.9994 110.916 53.808C110.583 53.6214 110.314 53.3429 110.143 53.008C109.95 52.6212 109.856 52.1948 109.868 51.7651C109.856 51.3434 109.951 50.9254 110.147 50.5489C110.326 50.2221 110.599 49.9532 110.933 49.7757C111.292 49.5914 111.693 49.4994 112.099 49.5084C112.391 49.5077 112.682 49.5568 112.957 49.6535C113.214 49.7377 113.447 49.8804 113.635 50.0697L113.356 50.6329C113.191 50.4741 112.993 50.35 112.776 50.2683C112.578 50.192 112.367 50.1518 112.154 50.1499C111.958 50.14 111.762 50.1722 111.581 50.2442C111.4 50.3161 111.237 50.426 111.104 50.5661C110.851 50.8448 110.725 51.2477 110.725 51.7746C110.695 52.2155 110.829 52.6521 111.104 53.0042C111.235 53.1478 111.397 53.2611 111.578 53.3355C111.76 53.4099 111.957 53.4434 112.154 53.4337C112.364 53.4314 112.572 53.3926 112.769 53.3192C112.988 53.2397 113.189 53.1175 113.358 52.9603L113.637 53.514C113.445 53.7079 113.208 53.8539 112.945 53.9397C112.672 54.035 112.385 54.0841 112.095 54.0848Z" fill="#151515"/>
<path d="M114.711 54.0857V49.6426H115.512V51.4801H116.328L117.775 49.6426H118.661L116.98 51.8008L116.767 51.555C116.923 51.5676 117.075 51.6106 117.214 51.6817C117.35 51.76 117.472 51.8599 117.575 51.9774C117.716 52.1406 117.843 52.3153 117.954 52.4997L118.885 54.0799H118.008L117.194 52.7109C117.122 52.5758 117.032 52.4511 116.926 52.3403C116.843 52.2537 116.741 52.1879 116.627 52.1483C116.492 52.1104 116.351 52.0929 116.211 52.0965H115.512V54.0742L114.711 54.0857Z" fill="#151515"/>
<path d="M121.713 54.0849C121.315 54.0946 120.921 53.999 120.573 53.808C120.251 53.6219 119.991 53.3473 119.825 53.0176C119.639 52.6389 119.549 52.2219 119.56 51.8015C119.548 51.3779 119.638 50.9576 119.825 50.5758C119.991 50.2462 120.251 49.9715 120.573 49.7854C120.921 49.5936 121.315 49.4979 121.713 49.5086C122.112 49.4985 122.507 49.594 122.856 49.7854C123.179 49.97 123.439 50.2451 123.603 50.5758C123.787 50.9549 123.877 51.3718 123.866 51.792C123.877 52.2153 123.787 52.6352 123.603 53.0176C123.439 53.3484 123.179 53.6235 122.856 53.808C122.507 53.9986 122.112 54.0941 121.713 54.0849ZM121.713 53.451C121.896 53.4575 122.078 53.4232 122.245 53.3504C122.413 53.2777 122.561 53.1685 122.68 53.031C122.924 52.7484 123.046 52.3354 123.046 51.792C123.046 51.2485 122.924 50.8387 122.68 50.5625C122.56 50.427 122.411 50.3197 122.244 50.2483C122.076 50.177 121.895 50.1434 121.713 50.1501C121.531 50.1431 121.349 50.1766 121.182 50.248C121.014 50.3193 120.865 50.4268 120.746 50.5625C120.506 50.8374 120.386 51.2472 120.386 51.792C120.386 52.3367 120.506 52.7497 120.746 53.031C120.864 53.1687 121.013 53.278 121.18 53.3508C121.348 53.4236 121.53 53.4578 121.713 53.451Z" fill="#151515"/>
<path d="M125.078 54.0763V49.6228H125.834V53.3258H125.586L128.427 49.6324H129.117V54.086H128.362V50.3849H128.617L125.768 54.086L125.078 54.0763ZM127.098 49.2167C126.852 49.2195 126.608 49.1744 126.38 49.0839C126.166 48.9985 125.974 48.8669 125.82 48.699C125.656 48.5162 125.536 48.2998 125.47 48.0658L125.943 47.8964C126.024 48.1433 126.179 48.361 126.388 48.5219C126.597 48.6578 126.846 48.7252 127.098 48.7144C127.352 48.7221 127.602 48.655 127.816 48.5219C128.035 48.3585 128.205 48.1412 128.308 47.8926L128.753 48.0523C128.638 48.4063 128.406 48.7138 128.095 48.928C127.799 49.1186 127.452 49.2192 127.098 49.2167Z" fill="#151515"/>
<path d="M133.023 54.0857V49.6426H133.705L135.378 52.5496L137.058 49.6426H137.736V54.0857H137.013V50.545H137.209L135.58 53.3714H135.175L133.548 50.5354H133.745V54.0857H133.023Z" fill="#151515"/>
<path d="M141.243 54.0855C140.535 54.0855 139.975 53.8831 139.564 53.4783C139.154 53.0755 138.95 52.5237 138.95 51.8096C138.939 51.3885 139.031 50.971 139.22 50.5934C139.388 50.2625 139.648 49.9858 139.969 49.7953C140.306 49.5995 140.692 49.5004 141.083 49.5089C141.446 49.4968 141.806 49.5868 142.119 49.7685C142.405 49.9416 142.631 50.1975 142.766 50.5017C142.922 50.856 142.997 51.2399 142.988 51.6263V51.8898H139.578V51.4144H142.439L142.289 51.5289C142.312 51.1501 142.204 50.7748 141.982 50.4655C141.873 50.3366 141.735 50.2349 141.579 50.1686C141.423 50.1023 141.253 50.0732 141.083 50.0836C140.893 50.0735 140.703 50.1084 140.529 50.1854C140.355 50.2624 140.202 50.3793 140.082 50.5265C139.832 50.8781 139.708 51.3033 139.732 51.7332V51.8134C139.732 52.3518 139.867 52.7586 140.136 53.0335C140.284 53.1755 140.46 53.2855 140.653 53.3565C140.846 53.4275 141.051 53.4579 141.257 53.4459C141.509 53.4485 141.76 53.4104 142 53.3332C142.244 53.2487 142.469 53.1191 142.664 52.9514L142.93 53.5051C142.713 53.6956 142.457 53.8387 142.181 53.9251C141.879 54.0302 141.563 54.0844 141.243 54.0855Z" fill="#151515"/>
<path d="M143.797 55.1628V53.4112H144.297C144.513 53.0915 144.666 52.7369 144.749 52.3648C144.849 51.8939 144.896 51.4141 144.889 50.9335V49.6426H148.185V53.4112H148.913V55.1628H148.185V54.0254H144.517V55.1628H143.797ZM145.081 53.4188H147.394V50.2568H145.613V51.0776C145.614 51.5094 145.568 51.9402 145.477 52.3629C145.404 52.7328 145.271 53.0892 145.081 53.4188Z" fill="#151515"/>
<path d="M149.855 54.0761V49.6426H150.611V53.3289H150.366L153.204 49.6522H153.895V54.0857H153.139V50.4013H153.394L150.548 54.0857L149.855 54.0761Z" fill="#151515"/>
<path d="M159.263 55.2974V54.1331H155.375V49.6426H156.18V53.5005H158.433V49.6426H159.237V53.5005H159.953V55.2936L159.263 55.2974Z" fill="#151515"/>
<path d="M161.027 54.0761V49.6426H161.783V53.3289H161.537L164.375 49.6522H165.067V54.0857H164.311V50.4013H164.566L161.719 54.0857L161.027 54.0761Z" fill="#151515"/>
<path d="M166.547 54.0857V49.6426H167.367V51.4801H169.772V49.6426H170.586V54.0857H169.772V52.1156H167.367V54.0857H166.547Z" fill="#151515"/>
<path d="M174.034 54.0848C173.622 54.0949 173.214 53.9994 172.853 53.808C172.519 53.6219 172.249 53.3433 172.079 53.008C171.885 52.6214 171.79 52.195 171.802 51.7651C171.79 51.3433 171.886 50.9252 172.083 50.5489C172.26 50.224 172.53 49.9555 172.861 49.7757C173.22 49.5914 173.623 49.4994 174.03 49.5084C174.323 49.5077 174.614 49.5568 174.89 49.6535C175.147 49.7377 175.38 49.8804 175.569 50.0697L175.287 50.6329C175.122 50.4745 174.925 50.3505 174.709 50.2683C174.509 50.1918 174.297 50.1516 174.083 50.1499C173.887 50.1403 173.692 50.1727 173.51 50.2446C173.329 50.3165 173.166 50.4263 173.034 50.5661C172.779 50.8448 172.653 51.2477 172.654 51.7746C172.624 52.2155 172.759 52.6521 173.034 53.0042C173.164 53.1477 173.326 53.2609 173.508 53.3352C173.689 53.4096 173.886 53.4433 174.083 53.4337C174.294 53.4319 174.502 53.3931 174.699 53.3192C174.919 53.2401 175.12 53.1179 175.289 52.9603L175.571 53.514C175.378 53.7079 175.141 53.8539 174.878 53.9397C174.607 54.0338 174.321 54.0829 174.034 54.0848Z" fill="#151515"/>
<path d="M176.648 54.0857V49.6426H177.463V51.4801H178.277L179.724 49.6426H180.609L178.92 51.8008L178.704 51.555C178.86 51.5671 179.012 51.6102 179.151 51.6817C179.288 51.7594 179.411 51.8594 179.515 51.9774C179.654 52.1416 179.781 52.3162 179.893 52.4997L180.822 54.0799H179.948L179.134 52.7109C179.062 52.5758 178.972 52.4511 178.866 52.3403C178.783 52.2537 178.68 52.1879 178.566 52.1483C178.431 52.1105 178.291 52.093 178.15 52.0965H177.463V54.0742L176.648 54.0857Z" fill="#151515"/>
<path d="M181.629 54.0761V49.6426H182.384V53.3289H182.139L184.976 49.6522H185.668V54.0857H184.923V50.4013H185.178L182.331 54.0857L181.629 54.0761Z" fill="#151515"/>
<path d="M187.148 54.0763V49.6283H187.903V53.3267H187.662L190.496 49.638H191.188V54.086H190.427V50.3895H190.682L187.838 54.086L187.148 54.0763ZM189.165 49.2227C188.921 49.2273 188.679 49.1849 188.452 49.0978C188.238 49.0121 188.047 48.8807 187.893 48.7134C187.731 48.5299 187.611 48.314 187.543 48.081L188.016 47.9118C188.098 48.1517 188.249 48.3633 188.452 48.5211C188.66 48.6574 188.908 48.7248 189.159 48.7134C189.413 48.7213 189.664 48.6543 189.878 48.5211C190.097 48.3583 190.266 48.1412 190.368 47.8926L190.814 48.0521C190.698 48.4059 190.467 48.713 190.155 48.9268C189.862 49.1188 189.518 49.2218 189.165 49.2227Z" fill="#151515"/>
<path d="M198.983 55.2974V54.1331H195.094V49.6426H195.899V53.5005H198.151V49.6426H198.956V53.5005H199.671V55.2936L198.983 55.2974Z" fill="#151515"/>
<path d="M202.772 54.0855C202.063 54.0855 201.504 53.8834 201.094 53.4791C200.682 53.0767 200.478 52.5256 200.478 51.8124C200.465 51.3903 200.557 50.9716 200.743 50.592C200.913 50.262 201.172 49.9857 201.493 49.7949C201.831 49.5991 202.218 49.5001 202.61 49.5089C202.973 49.4968 203.332 49.5867 203.646 49.7682C203.932 49.9422 204.157 50.1975 204.293 50.5005C204.448 50.8546 204.524 51.2378 204.515 51.6236V51.8868H201.108V51.412H203.968L203.818 51.5264C203.841 51.1481 203.733 50.7732 203.511 50.4643C203.402 50.3356 203.264 50.2341 203.108 50.1678C202.953 50.1016 202.783 50.0725 202.614 50.0829C202.423 50.0727 202.233 50.1074 202.059 50.1844C201.885 50.2613 201.732 50.3781 201.612 50.5253C201.359 50.8752 201.234 51.3005 201.258 51.7304V51.8105C201.258 52.3483 201.391 52.764 201.66 53.0291C201.808 53.1706 201.984 53.2803 202.177 53.3512C202.37 53.422 202.576 53.4526 202.781 53.441C203.034 53.4437 203.285 53.4057 203.525 53.3285C203.769 53.244 203.994 53.1146 204.189 52.9471L204.455 53.5001C204.238 53.6899 203.984 53.8328 203.708 53.9196C203.407 54.026 203.091 54.0821 202.772 54.0855Z" fill="#151515"/>
<path d="M205.73 54.0857V49.6426H206.539V51.4801H208.953V49.6426H209.77V54.0857H208.953V52.1156H206.539V54.0857H205.73Z" fill="#151515"/>
<path d="M212.197 54.0857V50.2878H210.578V49.6426H214.617V50.2878H213.001V54.0857H212.197Z" fill="#151515"/>
<path d="M215.495 55.9705V50.645C215.495 50.4732 215.495 50.2977 215.477 50.1201C215.459 49.9426 215.445 49.7651 215.422 49.5876H216.218L216.317 50.618H216.218C216.301 50.2859 216.507 49.9961 216.796 49.8056C217.11 49.6021 217.48 49.4983 217.856 49.5085C218.228 49.5004 218.595 49.596 218.914 49.7844C219.222 49.9752 219.466 50.2511 219.614 50.5774C219.79 50.9671 219.875 51.3902 219.864 51.8162C219.875 52.2434 219.79 52.6678 219.614 53.0588C219.467 53.3874 219.223 53.6654 218.914 53.8576C218.595 54.046 218.228 54.1417 217.856 54.1336C217.485 54.1424 217.119 54.0387 216.81 53.8364C216.523 53.6443 216.315 53.3596 216.22 53.0318H216.319V55.9705H215.495ZM217.658 53.4929C217.845 53.5005 218.032 53.4662 218.205 53.3927C218.377 53.3191 218.53 53.2083 218.653 53.0685C218.9 52.7829 219.022 52.3661 219.022 51.8162C219.022 51.2663 218.9 50.8514 218.653 50.5736C218.529 50.4358 218.375 50.3268 218.203 50.2547C218.031 50.1826 217.845 50.1492 217.658 50.1568C217.472 50.1498 217.288 50.1836 217.118 50.2557C216.948 50.3278 216.796 50.4365 216.674 50.5736C216.425 50.8476 216.301 51.2618 216.301 51.8162C216.301 52.3706 216.423 52.788 216.667 53.0685C216.789 53.2097 216.942 53.3215 217.116 53.3952C217.289 53.4688 217.477 53.5022 217.666 53.4929H217.658Z" fill="#151515"/>
<path d="M11.1789 45.4406C11.0967 43.3936 12.6737 42.2959 13.3903 45.305C14.1069 48.314 15.0803 55.0282 15.0803 55.0282C15.0803 55.0282 11.297 54.3655 11.3381 54.0968C11.3792 53.8281 11.1789 45.4406 11.1789 45.4406Z" fill="#00578A"/>
<path d="M7.5428 40.5185C7.44217 37.9912 9.39804 36.6473 10.2857 40.3502C11.1733 44.0531 12.3861 52.3362 12.3861 52.3362C12.3861 52.3362 7.68987 51.5201 7.74148 51.1886C7.79308 50.8571 7.5428 40.5185 7.5428 40.5185Z" fill="#007D99"/>
<path d="M3.88815 36.8918C3.77708 34.0808 5.90761 32.5807 6.8719 36.7053C7.83619 40.8298 9.15641 50.0475 9.15641 50.0475C9.15641 50.0475 3.0425 43.6588 3.09803 43.2959C3.15357 42.933 3.88815 36.8918 3.88815 36.8918Z" fill="#01A6A0"/>
<path d="M28.5765 73.608C27.7136 60.0516 13.6377 59.9658 7.59469 55.1578C1.55169 50.3497 0.224122 38.077 0.596863 35.3233C0.969603 32.5697 2.43248 31.2095 3.64772 35.0554C4.86295 38.9013 5.99904 45.8275 10.5843 49.0278C15.1695 52.228 23.7607 52.6491 18.8714 49.1145C12.4888 44.5004 13.5941 40.0407 15.1101 39.1081C16.2695 38.3949 18.9837 43.3878 22.7647 45.4268C26.5457 47.4659 32.2024 49.07 34.8193 55.422C37.7941 62.6429 28.5765 73.608 28.5765 73.608Z" fill="#00C6BF"/>
<path d="M57.2616 6.52584C53.0957 3.68033 46.1738 2.05216 39.3819 6.42378C36.6284 9.04727 34.3134 12.6022 32.7531 17.2188C32.7531 17.2188 24.768 8.42704 11.9924 13.2223C-0.783225 18.0176 0.00966736 31.87 0.00966736 31.87C0.00966736 31.87 3.68607 20.5901 15.9798 19.8755C28.2736 19.161 34.6748 31.0137 34.6748 31.0137C34.6748 31.0137 36.2357 19.0052 47.3848 16.1469C57.667 13.5209 63.8547 21.6032 61.2542 31.6633C65.6852 21.4246 63.8827 11.0455 57.2616 6.52584Z" fill="#00578A"/>
<path d="M52.2383 49.4835C52.2383 49.4835 41.7129 36.9876 23.1562 43.6603C23.1562 43.6603 32.6394 43.4591 36.9585 54.2892C39.6462 61.028 33.1234 70.9159 33.1234 70.9159C33.1234 70.9159 44.5923 61.4892 52.2383 49.4835Z" fill="#00578A"/>
<path d="M71.3442 8.92509C65.0524 -0.33138 49.3254 -3.07641 39.3519 6.39651C46.1489 2.03438 53.076 3.65902 57.245 6.49835C63.8787 11.0082 65.6647 21.3545 61.2508 31.5863C60.9792 32.6239 60.6312 33.6402 60.2098 34.6268C55.9591 44.6294 50.8869 50.9956 50.8869 50.9956C43.4648 62.2001 32.8516 71.0508 32.8516 71.0508C73.9601 53.8264 82.1291 24.805 71.3442 8.92509Z" fill="#00C6BF"/>
<path style="mix-blend-mode:multiply" opacity="0.29" d="M56.6432 17.0767C62.149 20.4561 62.2495 27.2855 61.136 31.6007C65.5441 21.3715 63.7468 11.0278 57.1448 6.51906C52.9908 3.68045 46.0888 2.05622 39.3164 6.41725C44.7872 3.2324 57.5228 0.645825 56.6432 17.0767Z" fill="#00578A"/>
<path style="mix-blend-mode:multiply" opacity="0.29" d="M48.4875 46.1426C46.2541 54.1628 37.1416 66.939 33.1211 70.9161C33.1211 70.9161 42.8591 62.985 52.2398 49.2616C51.0784 48.1922 49.8276 47.0337 48.4875 46.1426Z" fill="#00578A"/>
</svg>
